<svg width="2065" height="1972" viewBox="0 0 2065 1972" fill="none" xmlns="http://www.w3.org/2000/svg">
<g opacity="0.5">
<ellipse opacity="0.25" cx="121.615" cy="121.614" rx="121.615" ry="121.614" transform="matrix(-1 0 0 1 708.81 742.238)" fill="url(#paint0_linear_28_560)"/>
<ellipse opacity="0.25" cx="65.1975" cy="65.1973" rx="65.1975" ry="65.1973" transform="matrix(-0.965926 0.258818 0.25882 0.965926 591.575 1165.28)" fill="url(#paint1_linear_28_560)"/>
<ellipse opacity="0.25" cx="112.54" cy="112.54" rx="112.54" ry="112.54" transform="matrix(-0.965926 0.258818 0.25882 0.965926 407.325 828.133)" fill="url(#paint2_linear_28_560)"/>
<ellipse opacity="0.25" cx="76.9916" cy="76.9913" rx="76.9916" ry="76.9913" transform="matrix(-0.965926 0.258818 0.25882 0.965926 876.06 647.27)" fill="url(#paint3_linear_28_560)"/>
</g>
<g opacity="0.5">
<ellipse opacity="0.25" cx="1477.69" cy="863.553" rx="121.947" ry="121.448" fill="url(#paint4_linear_28_560)"/>
<ellipse opacity="0.25" cx="1519.32" cy="1245" rx="65.1976" ry="65.1976" transform="rotate(15 1519.32 1245)" fill="url(#paint5_linear_28_560)"/>
<ellipse opacity="0.25" cx="1737.05" cy="965.833" rx="112.54" ry="112.54" transform="rotate(15 1737.05 965.833)" fill="url(#paint6_linear_28_560)"/>
<ellipse opacity="0.25" cx="1243.18" cy="741.44" rx="76.9917" ry="76.9918" transform="rotate(15 1243.18 741.44)" fill="url(#paint7_linear_28_560)"/>
</g>
<g filter="url(#filter0_f_28_560)">
<ellipse cx="1032.5" cy="986" rx="532.298" ry="486" fill="url(#paint8_linear_28_560)" fill-opacity="0.1"/>
</g>
<defs>
<filter id="filter0_f_28_560" x="0.201904" y="0" width="2064.6" height="1972" filterUnits="userSpaceOnUse" color-interpolation-filters="sRGB">
<feFlood flood-opacity="0" result="BackgroundImageFix"/>
<feBlend mode="normal" in="SourceGraphic" in2="BackgroundImageFix" result="shape"/>
<feGaussianBlur stdDeviation="250" result="effect1_foregroundBlur_28_560"/>
</filter>
<linearGradient id="paint0_linear_28_560" x1="0" y1="0" x2="248.17" y2="5.15093" gradientUnits="userSpaceOnUse">
<stop stop-color="#7526F2"/>
<stop offset="1" stop-opacity="0"/>
</linearGradient>
<linearGradient id="paint1_linear_28_560" x1="0" y1="0" x2="133.044" y2="2.76141" gradientUnits="userSpaceOnUse">
<stop stop-color="#7526F2"/>
<stop offset="1" stop-opacity="0"/>
</linearGradient>
<linearGradient id="paint2_linear_28_560" x1="0" y1="0" x2="229.653" y2="4.76659" gradientUnits="userSpaceOnUse">
<stop stop-color="#7526F2"/>
<stop offset="1" stop-opacity="0"/>
</linearGradient>
<linearGradient id="paint3_linear_28_560" x1="0" y1="0" x2="157.112" y2="3.26095" gradientUnits="userSpaceOnUse">
<stop stop-color="#7526F2"/>
<stop offset="1" stop-opacity="0"/>
</linearGradient>
<linearGradient id="paint4_linear_28_560" x1="1355.74" y1="742.105" x2="1604.59" y2="747.292" gradientUnits="userSpaceOnUse">
<stop stop-color="#7526F2"/>
<stop offset="1" stop-opacity="0"/>
</linearGradient>
<linearGradient id="paint5_linear_28_560" x1="1454.13" y1="1179.81" x2="1587.17" y2="1182.57" gradientUnits="userSpaceOnUse">
<stop stop-color="#7526F2"/>
<stop offset="1" stop-opacity="0"/>
</linearGradient>
<linearGradient id="paint6_linear_28_560" x1="1624.51" y1="853.293" x2="1854.16" y2="858.059" gradientUnits="userSpaceOnUse">
<stop stop-color="#7526F2"/>
<stop offset="1" stop-opacity="0"/>
</linearGradient>
<linearGradient id="paint7_linear_28_560" x1="1166.19" y1="664.448" x2="1323.3" y2="667.709" gradientUnits="userSpaceOnUse">
<stop stop-color="#7526F2"/>
<stop offset="1" stop-opacity="0"/>
</linearGradient>
<linearGradient id="paint8_linear_28_560" x1="500.202" y1="500" x2="1586.33" y2="524.691" gradientUnits="userSpaceOnUse">
<stop stop-color="#7526F2"/>
<stop offset="1" stop-color="#C826F2"/>
</linearGradient>
</defs>
</svg>
