<svg width="28" height="28" viewBox="0 0 28 28" fill="none" xmlns="http://www.w3.org/2000/svg">
<mask id="mask0_31_928" style="mask-type:alpha" maskUnits="userSpaceOnUse" x="0" y="0" width="28" height="28">
<rect x="0.277344" y="0.64209" width="27.12" height="27.12" fill="#D9D9D9"/>
</mask>
<g mask="url(#mask0_31_928)">
<path d="M18.4732 15.6712L16.8347 14.0327C17.0042 13.1475 16.7499 12.3188 16.0719 11.5467C15.3939 10.7745 14.5182 10.4732 13.4447 10.6427L11.8062 9.00415C12.1263 8.85349 12.4512 8.74049 12.7808 8.66515C13.1104 8.58982 13.4635 8.55215 13.8402 8.55215C15.2527 8.55215 16.4533 9.04653 17.442 10.0353C18.4308 11.024 18.9252 12.2247 18.9252 13.6372C18.9252 14.0138 18.8875 14.3669 18.8122 14.6965C18.7368 15.0261 18.6238 15.351 18.4732 15.6712ZM22.0892 19.2307L20.4507 17.6487C21.1663 17.1025 21.8019 16.5045 22.3575 15.8548C22.9131 15.205 23.3887 14.4658 23.7842 13.6372C22.8425 11.735 21.4912 10.2236 19.7303 9.10303C17.9694 7.98245 16.006 7.42215 13.8402 7.42215C13.294 7.42215 12.7572 7.45982 12.2299 7.53515C11.7026 7.61049 11.1847 7.72349 10.6762 7.87415L8.92466 6.12265C9.69682 5.80249 10.4878 5.56236 11.2977 5.40228C12.1075 5.24219 12.955 5.16215 13.8402 5.16215C16.684 5.16215 19.2171 5.94845 21.4394 7.52103C23.6617 9.09361 25.272 11.1323 26.2702 13.6372C25.837 14.7483 25.2673 15.7794 24.561 16.7305C23.8548 17.6816 23.0308 18.515 22.0892 19.2307ZM22.6542 26.1802L17.9082 21.4907C17.249 21.6978 16.5851 21.8532 15.9165 21.9568C15.2479 22.0604 14.5558 22.1122 13.8402 22.1122C10.9963 22.1122 8.46324 21.3259 6.24091 19.7533C4.01857 18.1807 2.40832 16.142 1.41016 13.6372C1.80566 12.639 2.30474 11.7114 2.90741 10.8545C3.51007 9.99761 4.19749 9.23015 4.96966 8.55215L1.86216 5.38815L3.44416 3.80615L24.2362 24.5982L22.6542 26.1802ZM6.55166 10.1342C6.00549 10.6238 5.50641 11.1606 5.05441 11.7444C4.60241 12.3282 4.21632 12.9592 3.89616 13.6372C4.83782 15.5393 6.18911 17.0507 7.95003 18.1713C9.71095 19.2919 11.6743 19.8522 13.8402 19.8522C14.2168 19.8522 14.5841 19.8286 14.9419 19.7815C15.2997 19.7345 15.667 19.6827 16.0437 19.6262L15.0267 18.5527C14.8195 18.6092 14.6217 18.6515 14.4334 18.6798C14.2451 18.708 14.0473 18.7222 13.8402 18.7222C12.4277 18.7222 11.227 18.2278 10.2383 17.239C9.24953 16.2503 8.75516 15.0497 8.75516 13.6372C8.75516 13.43 8.76928 13.2322 8.79753 13.0439C8.82578 12.8556 8.86816 12.6578 8.92466 12.4507L6.55166 10.1342Z" fill="#AEAEAE"/>
</g>
</svg>
